<svg width="120" height="120" viewBox="0 0 120 120" fill="none" xmlns="http://www.w3.org/2000/svg">
<g clip-path="url(#clip0_25_34)">
<mask id="mask0_25_34" style="mask-type:luminance" maskUnits="userSpaceOnUse" x="0" y="0" width="120" height="120">
<path d="M90 0H30C13.4315 0 0 13.4315 0 30V90C0 106.569 13.4315 120 30 120H90C106.569 120 120 106.569 120 90V30C120 13.4315 106.569 0 90 0Z" fill="white"/>
</mask>
<g mask="url(#mask0_25_34)">
<path d="M90 0H30C13.4315 0 0 13.4315 0 30V90C0 106.569 13.4315 120 30 120H90C106.569 120 120 106.569 120 90V30C120 13.4315 106.569 0 90 0Z" fill="#121212"/>
</g>
<g clip-path="url(#clip1_25_34)">
<path d="M56.1244 54.4618L44.2803 55.19C44.0778 54.1786 43.6425 53.2683 42.9744 52.4591C42.3062 51.6297 41.4255 50.9722 40.3322 50.4867C39.2592 49.981 37.9735 49.7282 36.4753 49.7282C34.4709 49.7282 32.7804 50.153 31.4036 51.0026C30.0268 51.832 29.3385 52.9446 29.3385 54.3404C29.3385 55.453 29.7839 56.3937 30.6748 57.1624C31.5656 57.9311 33.0942 58.5481 35.2605 59.0134L43.7032 60.7126C48.2384 61.6431 51.6196 63.1401 53.8466 65.2035C56.0739 67.2669 57.1873 69.9776 57.1873 73.3357C57.1873 76.3903 56.2864 79.0705 54.4844 81.3768C52.7027 83.6831 50.2529 85.4832 47.135 86.778C44.0373 88.0524 40.4638 88.6896 36.4146 88.6896C30.2395 88.6896 25.3196 87.405 21.655 84.8358C18.0107 82.2468 15.8747 78.7267 15.2471 74.2765L27.9719 73.6087C28.3566 75.4902 29.2879 76.9262 30.7659 77.9174C32.2438 78.8886 34.1369 79.3741 36.4449 79.3741C38.7125 79.3741 40.5347 78.9391 41.9114 78.0691C43.3084 77.1793 44.017 76.0363 44.0373 74.6406C44.017 73.4671 43.521 72.5061 42.5492 71.7578C41.5774 70.9891 40.0792 70.4024 38.0545 69.9978L29.9763 68.3896C25.4208 67.4793 22.0296 65.9014 19.8025 63.656C17.5956 61.4105 16.4922 58.5481 16.4922 55.0687C16.4922 52.0747 17.3021 49.4955 18.9218 47.331C20.5617 45.1664 22.8597 43.4975 25.8156 42.3242C28.7919 41.1509 32.2742 40.5643 36.2627 40.5643C42.1544 40.5643 46.7908 41.8084 50.1719 44.2966C53.5733 46.7848 55.5574 50.1732 56.1244 54.4618ZM85.8696 41.1712V50.8812H57.7782V41.1712H85.8696ZM64.1555 30.0046H77.0927V73.457C77.0927 74.6504 77.2752 75.581 77.6397 76.2487C78.0041 76.8961 78.5103 77.351 79.1583 77.6142C79.8261 77.8771 80.5954 78.0085 81.4661 78.0085C82.0737 78.0085 82.6809 77.9581 83.2885 77.8567C83.8957 77.7355 84.3611 77.6443 84.6853 77.5837L86.7199 87.2027C86.072 87.405 85.161 87.6377 83.9869 87.9006C82.8124 88.1838 81.385 88.3559 79.7048 88.4165C76.5869 88.5378 73.8535 88.1232 71.505 87.1726C69.1768 86.2217 67.3646 84.7451 66.0687 82.7424C64.7729 80.7396 64.1352 78.2107 64.1555 75.1562V30.0046ZM97.583 88.5683C95.579 88.5683 93.858 87.8603 92.4204 86.4443C91.0032 85.008 90.2946 83.2884 90.2946 81.2857C90.2946 79.3033 91.0032 77.6041 92.4204 76.1881C93.858 74.7721 95.579 74.0641 97.583 74.0641C99.5268 74.0641 101.227 74.7721 102.685 76.1881C104.143 77.6041 104.872 79.3033 104.872 81.2857C104.872 82.6207 104.528 83.8446 103.839 84.9575C103.171 86.0496 102.29 86.9297 101.197 87.5974C100.104 88.2444 98.8992 88.5683 97.583 88.5683Z" fill="white"/>
</g>
</g>
<defs>
<clipPath id="clip0_25_34">
<rect width="120" height="120" fill="white"/>
</clipPath>
<clipPath id="clip1_25_34">
<rect width="90" height="59" fill="white" transform="translate(15 30)"/>
</clipPath>
</defs>
</svg>
