<svg width="1200" height="342" viewBox="0 0 1200 342" fill="none" xmlns="http://www.w3.org/2000/svg">
<path d="M1124.28 36.8014V30.335H1154.76V36.8014H1143.39V67.4307H1135.64V36.8014H1124.28ZM1159.77 30.335H1169.45L1179.67 55.2586H1180.11L1190.32 30.335H1200V67.4307H1192.39V43.2859H1192.08L1182.48 67.2495H1177.29L1167.69 43.1953H1167.39V67.4307H1159.77V30.335Z" fill="#121212"/>
<path d="M113.819 68.1295L80.8405 70.1582C80.2768 67.3405 79.0647 64.8048 77.2044 62.5507C75.344 60.2403 72.8918 58.4088 69.8475 57.0563C66.8597 55.6475 63.28 54.9431 59.1083 54.9431C53.5272 54.9431 48.82 56.1265 44.9866 58.4933C41.1531 60.8037 39.2364 63.9031 39.2364 67.7914C39.2364 70.8908 40.4766 73.5112 42.9571 75.6525C45.4376 77.7938 49.6938 79.5126 55.7258 80.8087L79.2339 85.5424C91.8615 88.1344 101.276 92.3042 107.477 98.0526C113.679 103.8 116.779 111.352 116.779 120.705C116.779 129.215 114.271 136.682 109.253 143.106C104.292 149.53 97.471 154.545 88.7888 158.152C80.164 161.702 70.214 163.477 58.9391 163.477C41.745 163.477 28.0462 159.899 17.8424 152.742C7.69507 145.529 1.7476 135.724 0 123.326L35.4312 121.466C36.5022 126.707 39.0955 130.709 43.2108 133.47C47.3261 136.174 52.597 137.527 59.0237 137.527C65.3376 137.527 70.4113 136.315 74.2447 133.892C78.1345 131.413 80.1076 128.229 80.164 124.341C80.1076 121.072 78.7265 118.396 76.0205 116.31C73.3145 114.169 69.1428 112.535 63.5054 111.408L41.0122 106.928C28.328 104.392 18.8853 99.9968 12.6842 93.7417C6.5394 87.4866 3.46701 79.5126 3.46701 69.8201C3.46701 61.48 5.72198 54.2951 10.2319 48.2655C14.7982 42.2358 21.1967 37.5867 29.4273 34.3183C37.7143 31.0499 47.4107 29.4157 58.5164 29.4157C74.9212 29.4157 87.8312 32.8814 97.2457 39.8126C106.716 46.7439 112.241 56.1829 113.819 68.1295ZM196.643 31.1063V58.1552H118.423V31.1063H196.643ZM136.182 0H172.205V121.044C172.205 124.369 172.712 126.961 173.727 128.821C174.742 130.624 176.151 131.892 177.954 132.624C179.815 133.357 181.958 133.723 184.381 133.723C186.073 133.723 187.764 133.582 189.455 133.301C191.147 132.962 192.443 132.709 193.345 132.54L199.011 159.335C197.207 159.899 194.67 160.547 191.4 161.279C188.13 162.068 184.156 162.547 179.477 162.716C170.795 163.055 163.185 161.899 156.646 159.25C150.162 156.602 145.117 152.489 141.509 146.909C137.901 141.331 136.125 134.287 136.182 125.777V0ZM245.24 163.393C236.953 163.393 229.568 161.955 223.085 159.081C216.602 156.152 211.472 151.841 207.695 146.148C203.975 140.401 202.114 133.245 202.114 124.679C202.114 117.466 203.439 111.408 206.088 106.505C208.738 101.603 212.346 97.6582 216.912 94.6709C221.479 91.6844 226.665 89.4308 232.471 87.9091C238.334 86.3874 244.479 85.3171 250.906 84.6966C258.46 83.9081 264.548 83.1754 269.171 82.4993C273.794 81.7666 277.148 80.696 279.234 79.2872C281.319 77.8784 282.363 75.7934 282.363 73.0321V72.5249C282.363 67.1715 280.671 63.0296 277.289 60.0993C273.963 57.1691 269.228 55.7039 263.082 55.7039C256.599 55.7039 251.441 57.1408 247.608 60.0148C243.775 62.8324 241.238 66.3826 239.997 70.6653L206.68 67.9604C208.371 60.0712 211.698 53.2526 216.658 47.5047C221.62 41.7004 228.018 37.2486 235.854 34.1493C243.747 30.9935 252.879 29.4157 263.251 29.4157C270.467 29.4157 277.373 30.261 283.969 31.9515C290.621 33.6421 296.512 36.2625 301.642 39.8126C306.829 43.3628 310.916 47.9274 313.904 53.5062C316.891 59.0287 318.386 65.65 318.386 73.3702V160.941H284.223V142.937H283.208C281.122 146.994 278.332 150.572 274.836 153.672C271.342 156.714 267.141 159.11 262.237 160.857C257.332 162.547 251.667 163.393 245.24 163.393ZM255.557 138.542C260.856 138.542 265.535 137.499 269.594 135.414C273.652 133.273 276.838 130.398 279.149 126.792C281.46 123.185 282.616 119.1 282.616 114.535V100.758C281.488 101.49 279.938 102.166 277.965 102.786C276.049 103.35 273.878 103.885 271.454 104.392C269.03 104.842 266.606 105.266 264.182 105.66C261.758 105.998 259.559 106.308 257.586 106.589C253.358 107.21 249.666 108.196 246.509 109.548C243.352 110.9 240.899 112.732 239.152 115.043C237.404 117.297 236.531 120.114 236.531 123.496C236.531 128.398 238.306 132.145 241.858 134.737C245.465 137.273 250.032 138.542 255.557 138.542ZM403.513 31.1063V58.1552H325.294V31.1063H403.513ZM343.052 0H379.075V121.044C379.075 124.369 379.583 126.961 380.597 128.821C381.612 130.624 383.021 131.892 384.825 132.624C386.686 133.357 388.828 133.723 391.252 133.723C392.943 133.723 394.634 133.582 396.326 133.301C398.017 132.962 399.313 132.709 400.215 132.54L405.881 159.335C404.077 159.899 401.54 160.547 398.27 161.279C395.001 162.068 391.026 162.547 386.347 162.716C377.666 163.055 370.055 161.899 363.516 159.25C357.032 156.602 351.988 152.489 348.379 146.909C344.772 141.331 342.996 134.287 343.052 125.777V0ZM472.871 163.477C459.51 163.477 448.01 160.772 438.37 155.363C428.786 149.897 421.401 142.176 416.214 132.202C411.028 122.171 408.435 110.309 408.435 96.6151C408.435 83.26 411.028 71.5388 416.214 61.4518C421.401 51.3648 428.701 43.5037 438.115 37.8685C447.587 32.2333 458.692 29.4157 471.432 29.4157C480.001 29.4157 487.979 30.7963 495.364 33.5575C502.805 36.2625 509.288 40.348 514.813 45.8142C520.393 51.2803 524.735 58.1552 527.835 66.4389C530.935 74.6664 532.486 84.3025 532.486 95.3476V105.237H422.81V82.9219H498.577C498.577 77.7375 497.449 73.1448 495.195 69.1438C492.939 65.1428 489.811 62.0153 485.808 59.7612C481.862 57.4508 477.267 56.2956 472.024 56.2956C466.557 56.2956 461.708 57.5635 457.48 60.0993C453.309 62.5788 450.039 65.9317 447.671 70.1582C445.303 74.3282 444.092 78.9773 444.035 84.1053V105.322C444.035 111.746 445.219 117.297 447.587 121.974C450.011 126.651 453.421 130.257 457.819 132.793C462.215 135.329 467.43 136.597 473.462 136.597C477.465 136.597 481.129 136.034 484.455 134.907C487.781 133.779 490.628 132.089 492.996 129.835C495.364 127.581 497.168 124.819 498.408 121.551L531.725 123.749C530.034 131.751 526.567 138.739 521.324 144.712C516.138 150.628 509.429 155.25 501.198 158.574C493.024 161.843 483.581 163.477 472.871 163.477ZM5.75016 339.464V209.629H40.082V232.536H41.6041C44.31 224.929 48.82 218.927 55.1339 214.532C61.4478 210.136 69.0019 207.939 77.7963 207.939C86.7036 207.939 94.2861 210.164 100.543 214.616C106.8 219.012 110.973 224.985 113.058 232.536H114.411C117.061 225.098 121.852 219.152 128.787 214.701C135.777 210.193 144.036 207.939 153.563 207.939C165.683 207.939 175.521 211.799 183.075 219.519C190.686 227.183 194.491 238.059 194.491 252.147V339.464H158.552V259.247C158.552 252.034 156.636 246.625 152.802 243.017C148.969 239.411 144.177 237.608 138.427 237.608C131.888 237.608 126.785 239.693 123.121 243.863C119.457 247.977 117.625 253.414 117.625 260.177V339.464H82.7009V258.486C82.7009 252.119 80.8687 247.047 77.2044 243.272C73.5964 239.495 68.8328 237.608 62.9135 237.608C58.911 237.608 55.3031 238.622 52.0896 240.651C48.9327 242.623 46.4241 245.413 44.5637 249.019C42.7034 252.569 41.7733 256.739 41.7733 261.529V339.464H5.75016ZM270.232 342C256.871 342 245.371 339.295 235.731 333.886C226.147 328.419 218.762 320.699 213.576 310.724C208.39 300.694 205.796 288.832 205.796 275.138C205.796 261.783 208.39 250.061 213.576 239.975C218.762 229.888 226.063 222.027 235.478 216.391C244.948 210.756 256.054 207.939 268.795 207.939C277.364 207.939 285.34 209.319 292.725 212.08C300.167 214.785 306.65 218.871 312.174 224.337C317.756 229.803 322.096 236.678 325.197 244.962C328.298 253.189 329.848 262.825 329.848 273.871V283.76H220.172V261.444H295.939C295.939 256.26 294.811 251.667 292.556 247.667C290.302 243.666 287.173 240.539 283.17 238.284C279.224 235.973 274.63 234.818 269.387 234.818C263.918 234.818 259.07 236.087 254.842 238.622C250.67 241.102 247.401 244.455 245.033 248.681C242.666 252.852 241.453 257.5 241.397 262.628V283.845C241.397 290.269 242.581 295.819 244.948 300.497C247.373 305.174 250.783 308.78 255.18 311.316C259.578 313.852 264.792 315.12 270.824 315.12C274.827 315.12 278.491 314.557 281.817 313.43C285.143 312.302 287.99 310.612 290.358 308.358C292.725 306.104 294.529 303.342 295.77 300.074L329.087 302.272C327.395 310.274 323.929 317.262 318.686 323.235C313.499 329.151 306.791 333.773 298.56 337.097C290.386 340.366 280.943 342 270.232 342ZM377.473 264.404V339.464H341.45V209.629H375.781V232.536H377.304C380.179 224.985 384.998 219.012 391.764 214.616C398.528 210.164 406.731 207.939 416.37 207.939C425.39 207.939 433.255 209.911 439.963 213.855C446.672 217.8 451.887 223.435 455.607 230.761C459.328 238.031 461.188 246.709 461.188 256.796V339.464H425.165V263.219C425.222 255.274 423.192 249.075 419.077 244.624C414.961 240.115 409.296 237.862 402.08 237.862C397.232 237.862 392.948 238.904 389.227 240.989C385.562 243.074 382.687 246.117 380.602 250.118C378.572 254.063 377.529 258.824 377.473 264.404ZM546.76 209.629V236.678H468.541V209.629H546.76ZM486.299 178.523H522.321V299.567C522.321 302.892 522.829 305.484 523.844 307.344C524.858 309.147 526.268 310.415 528.072 311.147C529.932 311.88 532.074 312.246 534.499 312.246C536.189 312.246 537.881 312.105 539.573 311.824C541.263 311.485 542.56 311.232 543.462 311.063L549.127 337.858C547.324 338.422 544.787 339.07 541.517 339.802C538.248 340.591 534.273 341.07 529.594 341.239C520.912 341.577 513.301 340.422 506.762 337.773C500.279 335.125 495.234 331.011 491.626 325.432C488.018 319.854 486.242 312.81 486.299 304.3V178.523Z" fill="#121212"/>
</svg>
