<svg width="1500" height="200" viewBox="0 0 1500 200" fill="none" xmlns="http://www.w3.org/2000/svg">
<g clip-path="url(#clip0_10_113)">
<path d="M142.781 84.1968L101.461 86.6786C100.755 83.2315 99.2364 80.1292 96.9056 77.3716C94.5747 74.5449 91.5023 72.3043 87.6881 70.6497C83.9447 68.9262 79.4596 68.0644 74.2328 68.0644C67.2403 68.0644 61.3426 69.5121 56.5396 72.4077C51.7366 75.2343 49.3352 79.0261 49.3352 83.7831C49.3352 87.5749 50.889 90.7807 53.9968 93.4005C57.1047 96.0202 62.4373 98.123 69.9949 99.7086L99.4483 105.5C115.27 108.671 127.065 113.772 134.835 120.805C142.605 127.837 146.489 137.075 146.489 148.519C146.489 158.93 143.346 168.064 137.06 175.924C130.844 183.783 122.298 189.919 111.42 194.331C100.614 198.675 88.1473 200.846 74.0209 200.846C52.4782 200.846 35.3148 196.469 22.5305 187.713C9.81676 178.888 2.36512 166.892 0.175537 151.725L44.5675 149.45C45.9095 155.862 49.1586 160.757 54.3147 164.135C59.4708 167.443 66.0748 169.098 74.1269 169.098C82.0376 169.098 88.3944 167.616 93.1974 164.652C98.0709 161.618 100.543 157.723 100.614 152.966C100.543 148.967 98.8127 145.693 95.4223 143.142C92.032 140.522 86.8052 138.523 79.742 137.144L51.5601 131.663C35.6679 128.561 23.8372 123.184 16.0676 115.531C8.36881 107.878 4.51938 98.123 4.51938 86.265C4.51938 76.0616 7.34465 67.2716 12.9952 59.8948C18.7163 52.518 26.733 46.8303 37.0452 42.8317C47.4281 38.833 59.5768 36.8338 73.4912 36.8338C94.0449 36.8338 110.22 41.0737 122.016 49.5535C133.881 58.0333 140.803 69.5811 142.781 84.1968ZM246.551 38.902V71.9941H148.549V38.902H246.551ZM170.799 0.846191H215.932V148.933C215.932 153 216.568 156.171 217.84 158.447C219.111 160.653 220.876 162.205 223.136 163.1C225.468 163.997 228.152 164.445 231.189 164.445C233.308 164.445 235.426 164.272 237.545 163.928C239.665 163.514 241.289 163.204 242.419 162.997L249.518 195.779C247.258 196.469 244.079 197.261 239.982 198.158C235.885 199.123 230.906 199.708 225.044 199.915C214.167 200.329 204.631 198.916 196.438 195.675C188.315 192.435 181.994 187.403 177.473 180.577C172.953 173.752 170.728 165.135 170.799 154.724V0.846191ZM307.439 200.743C297.056 200.743 287.803 198.985 279.681 195.468C271.558 191.884 265.131 186.61 260.399 179.646C255.737 172.614 253.406 163.859 253.406 153.38C253.406 144.555 255.066 137.144 258.385 131.146C261.705 125.148 266.225 120.323 271.947 116.668C277.668 113.014 284.166 110.257 291.441 108.395C298.787 106.534 306.485 105.224 314.537 104.465C324.002 103.5 331.631 102.604 337.422 101.777C343.214 100.881 347.416 99.5708 350.03 97.8473C352.643 96.1237 353.95 93.5728 353.95 90.1947V89.5742C353.95 83.0248 351.831 77.9575 347.593 74.3725C343.426 70.7876 337.493 68.9951 329.794 68.9951C321.671 68.9951 315.209 70.7531 310.405 74.2691C305.603 77.7162 302.424 82.0595 300.87 87.2991L259.127 83.9899C261.246 74.3381 265.413 65.9962 271.629 58.9641C277.845 51.863 285.861 46.4167 295.679 42.6249C305.568 38.7641 317.009 36.8338 330.006 36.8338C339.047 36.8338 347.699 37.8679 355.963 39.9361C364.298 42.0044 371.678 45.2102 378.106 49.5535C384.604 53.8968 389.725 59.4812 393.469 66.3064C397.212 73.0627 399.084 81.1633 399.084 90.6083V197.744H356.281V175.717H355.009C352.396 180.681 348.9 185.058 344.52 188.85C340.142 192.573 334.879 195.504 328.734 197.641C322.59 199.708 315.491 200.743 307.439 200.743ZM320.365 170.34C327.004 170.34 332.867 169.064 337.952 166.514C343.037 163.894 347.029 160.377 349.924 155.966C352.82 151.553 354.268 146.554 354.268 140.97V124.114C352.855 125.01 350.912 125.838 348.44 126.596C346.04 127.286 343.319 127.941 340.283 128.561C337.246 129.112 334.208 129.63 331.171 130.112C328.135 130.525 325.379 130.905 322.907 131.249C317.61 132.008 312.984 133.215 309.029 134.868C305.073 136.523 302 138.764 299.811 141.591C297.621 144.348 296.527 147.795 296.527 151.932C296.527 157.93 298.752 162.515 303.201 165.686C307.721 168.788 313.443 170.34 320.365 170.34ZM505.741 38.902V71.9941H407.739V38.902H505.741ZM429.988 0.846191H475.122V148.933C475.122 153 475.758 156.171 477.029 158.447C478.301 160.653 480.066 162.205 482.326 163.1C484.658 163.997 487.342 164.445 490.378 164.445C492.498 164.445 494.616 164.272 496.735 163.928C498.855 163.514 500.479 163.204 501.609 162.997L508.708 195.779C506.448 196.469 503.269 197.261 499.172 198.158C495.075 199.123 490.096 199.708 484.233 199.915C473.357 200.329 463.821 198.916 455.628 195.675C447.505 192.435 441.184 187.403 436.663 180.577C432.143 173.752 429.918 165.135 429.988 154.724V0.846191ZM592.639 200.846C575.9 200.846 561.491 197.537 549.413 190.919C537.405 184.232 528.152 174.786 521.654 162.583C515.156 150.312 511.907 135.799 511.907 119.046C511.907 102.708 515.156 88.3677 521.654 76.0272C528.152 63.6866 537.299 54.0693 549.094 47.1751C560.961 40.2809 574.875 36.8338 590.837 36.8338C601.574 36.8338 611.568 38.5228 620.821 41.9009C630.145 45.2102 638.267 50.2084 645.189 56.8959C652.181 63.5832 657.621 71.9941 661.504 82.1285C665.389 92.194 667.332 103.983 667.332 117.496V129.594H529.918V102.294H624.847C624.847 95.9513 623.434 90.3326 620.609 85.4377C617.784 80.5428 613.864 76.7165 608.849 73.9589C603.905 71.1323 598.148 69.719 591.579 69.719C584.729 69.719 578.654 71.2702 573.356 74.3725C568.13 77.406 564.033 81.508 561.067 86.6786C558.1 91.7803 556.582 97.4681 556.511 103.742V129.698C556.511 137.558 557.995 144.348 560.961 150.071C563.998 155.793 568.271 160.205 573.781 163.307C579.289 166.41 585.823 167.961 593.381 167.961C598.395 167.961 602.987 167.272 607.154 165.893C611.321 164.514 614.888 162.446 617.855 159.688C620.821 156.931 623.081 153.552 624.635 149.554L666.378 152.242C664.26 162.032 659.916 170.581 653.347 177.888C646.849 185.127 638.443 190.781 628.131 194.848C617.89 198.847 606.059 200.846 592.639 200.846ZM681.868 197.744V38.902H724.883V66.9269H726.789C730.18 57.6197 735.83 50.2774 743.741 44.9C751.652 39.5225 761.116 36.8338 772.135 36.8338C783.295 36.8338 792.795 39.557 800.635 45.0034C808.475 50.3809 813.702 57.6887 816.315 66.9269H818.01C821.331 57.8266 827.334 50.5532 836.022 45.1067C844.78 39.5914 855.127 36.8338 867.064 36.8338C882.25 36.8338 894.575 41.5563 904.04 51.0013C913.576 60.3774 918.343 73.6832 918.343 90.9185V197.744H873.316V99.6052C873.316 90.7807 870.914 84.1623 866.11 79.75C861.308 75.3378 855.304 73.1316 848.1 73.1316C839.906 73.1316 833.514 75.6824 828.923 80.7841C824.332 85.8168 822.037 92.4697 822.037 100.743V197.744H778.28V98.6745C778.28 90.8841 775.985 84.6794 771.393 80.0603C766.873 75.4411 760.904 73.1316 753.488 73.1316C748.474 73.1316 743.953 74.3725 739.927 76.8544C735.972 79.2674 732.829 82.68 730.497 87.0923C728.167 91.4356 727.001 96.5373 727.001 102.397V197.744H681.868ZM1013.24 200.846C996.5 200.846 982.091 197.537 970.013 190.919C958.006 184.232 948.753 174.786 942.255 162.583C935.757 150.312 932.508 135.799 932.508 119.046C932.508 102.708 935.757 88.3677 942.255 76.0272C948.753 63.6866 957.9 54.0693 969.696 47.1751C981.562 40.2809 995.476 36.8338 1011.44 36.8338C1022.18 36.8338 1032.17 38.5228 1041.42 41.9009C1050.75 45.2102 1058.87 50.2084 1065.79 56.8959C1072.78 63.5832 1078.22 71.9941 1082.1 82.1285C1085.99 92.194 1087.93 103.983 1087.93 117.496V129.594H950.518V102.294H1045.45C1045.45 95.9513 1044.04 90.3326 1041.21 85.4377C1038.39 80.5428 1034.47 76.7165 1029.45 73.9589C1024.51 71.1323 1018.75 69.719 1012.18 69.719C1005.33 69.719 999.255 71.2702 993.958 74.3725C988.73 77.406 984.635 81.508 981.667 86.6786C978.701 91.7803 977.182 97.4681 977.112 103.742V129.698C977.112 137.558 978.595 144.348 981.562 150.071C984.598 155.793 988.872 160.205 994.381 163.307C999.891 166.41 1006.42 167.961 1013.98 167.961C1019 167.961 1023.59 167.272 1027.75 165.893C1031.92 164.514 1035.49 162.446 1038.46 159.688C1041.42 156.931 1043.68 153.552 1045.24 149.554L1086.98 152.242C1084.86 162.032 1080.51 170.581 1073.95 177.888C1067.45 185.127 1059.04 190.781 1048.73 194.848C1038.49 198.847 1026.66 200.846 1013.24 200.846ZM1147.6 105.914V197.744H1102.47V38.902H1145.48V66.9269H1147.39C1151 57.6887 1157.03 50.3809 1165.51 45.0034C1173.98 39.557 1184.26 36.8338 1196.34 36.8338C1207.64 36.8338 1217.5 39.2468 1225.89 44.0726C1234.3 48.8986 1240.83 55.7928 1245.5 64.7552C1250.16 73.6486 1252.49 84.2656 1252.49 96.6063V197.744H1207.35V104.465C1207.43 94.7448 1204.88 87.1612 1199.72 81.7148C1194.57 76.1995 1187.47 73.4419 1178.44 73.4419C1172.36 73.4419 1166.99 74.7173 1162.32 77.2681C1157.74 79.819 1154.14 83.5418 1151.52 88.4367C1148.98 93.2626 1147.67 99.0881 1147.6 105.914ZM1359.7 38.902V71.9941H1261.71V38.902H1359.7ZM1283.95 0.846191H1329.09V148.933C1329.09 153 1329.72 156.171 1331 158.447C1332.27 160.653 1334.03 162.205 1336.29 163.1C1338.62 163.997 1341.3 164.445 1344.34 164.445C1346.46 164.445 1348.58 164.272 1350.7 163.928C1352.82 163.514 1354.44 163.204 1355.57 162.997L1362.68 195.779C1360.41 196.469 1357.23 197.261 1353.14 198.158C1349.04 199.123 1344.06 199.708 1338.2 199.915C1327.32 200.329 1317.78 198.916 1309.59 195.675C1301.47 192.435 1295.14 187.403 1290.62 180.577C1286.11 173.752 1283.88 165.135 1283.95 154.724V0.846191Z" fill="#121212"/>
<path d="M1400.18 47.0618V38.3459H1440.43V47.0618H1425.42V88.3459H1415.18V47.0618H1400.18ZM1447.05 38.3459H1459.83L1473.33 71.9397H1473.91L1487.39 38.3459H1500.18V88.3459H1490.12V55.802H1489.72L1477.04 88.1018H1470.19L1457.51 55.68H1457.1V88.3459H1447.05V38.3459Z" fill="#121212"/>
</g>
<defs>
<clipPath id="clip0_10_113">
<rect width="1500" height="200" fill="white"/>
</clipPath>
</defs>
</svg>
