<svg width="1200" height="161" viewBox="0 0 1200 161" fill="none" xmlns="http://www.w3.org/2000/svg">
<g clip-path="url(#clip0_10_86)">
<path d="M114.226 67.3629L81.1702 69.3483C80.6052 66.5906 79.3903 64.1088 77.5256 61.9027C75.6609 59.6414 73.203 57.8489 70.1517 56.5252C67.1569 55.1463 63.5688 54.4569 59.3874 54.4569C53.7934 54.4569 49.0752 55.6151 45.2329 57.9316C41.3905 60.1928 39.4693 63.2263 39.4693 67.0319C39.4693 70.0654 40.7124 72.63 43.1986 74.7258C45.6849 76.8216 49.951 78.5038 55.9971 79.7723L79.5598 84.4054C92.2169 86.9422 101.653 91.0233 107.869 96.6495C114.085 102.275 117.192 109.666 117.192 118.821C117.192 127.149 114.678 134.457 109.649 140.744C104.677 147.032 97.8395 151.94 89.1371 155.471C80.4921 158.945 70.519 160.682 59.2179 160.682C41.9838 160.682 28.253 157.18 18.0256 150.176C7.85458 143.116 1.89327 133.519 0.141602 121.386L35.6552 119.565C36.7287 124.695 39.328 128.611 43.4529 131.313C47.5778 133.96 52.861 135.284 59.3027 135.284C65.6313 135.284 70.7167 134.098 74.5591 131.727C78.4579 129.3 80.4356 126.184 80.4921 122.378C80.4356 119.179 79.0513 116.56 76.339 114.519C73.6267 112.423 69.4453 110.824 63.7948 109.721L41.2492 105.336C28.5355 102.854 19.0709 98.5523 12.8553 92.4303C6.69622 86.3082 3.61668 78.5038 3.61668 69.0174C3.61668 60.8547 5.87689 53.8227 10.3973 47.9213C14.9742 42.0199 21.3876 37.4697 29.6374 34.2708C37.9436 31.0719 47.6626 29.4724 58.7941 29.4724C75.2371 29.4724 88.1772 32.8644 97.6136 39.6482C107.106 46.4321 112.643 55.6703 114.226 67.3629ZM197.242 31.127V57.6007H118.841V31.127H197.242ZM136.64 0.682373H172.747V119.152C172.747 122.406 173.256 124.943 174.273 126.763C175.29 128.528 176.702 129.769 178.51 130.486C180.375 131.203 182.523 131.561 184.952 131.561C186.647 131.561 188.342 131.423 190.038 131.148C191.733 130.817 193.032 130.569 193.937 130.403L199.615 156.629C197.807 157.18 195.265 157.814 191.987 158.532C188.709 159.304 184.726 159.772 180.036 159.938C171.335 160.269 163.706 159.138 157.152 156.546C150.653 153.954 145.596 149.928 141.98 144.467C138.364 139.007 136.584 132.113 136.64 123.784V0.682373ZM245.952 160.6C237.646 160.6 230.244 159.193 223.746 156.38C217.248 153.513 212.106 149.294 208.32 143.722C204.591 138.097 202.726 131.093 202.726 122.709C202.726 115.65 204.054 109.721 206.709 104.922C209.365 100.124 212.981 96.2634 217.559 93.3397C222.136 90.4168 227.334 88.2111 233.154 86.7217C239.031 85.2324 245.189 84.1849 251.631 83.5775C259.203 82.8058 265.306 82.0888 269.939 81.427C274.572 80.7099 277.934 79.6621 280.025 78.2832C282.115 76.9044 283.161 74.8637 283.161 72.1612V71.6648C283.161 66.4252 281.466 62.3714 278.076 59.5034C274.742 56.6355 269.996 55.2015 263.836 55.2015C257.338 55.2015 252.168 56.6079 248.325 59.4207C244.483 62.1784 241.941 65.653 240.697 69.8447L207.302 67.1974C208.998 59.4759 212.332 52.8024 217.304 47.1767C222.277 41.4958 228.69 37.1388 236.544 34.1053C244.455 31.0167 253.609 29.4724 264.006 29.4724C271.238 29.4724 278.16 30.2997 284.772 31.9543C291.439 33.609 297.344 36.1736 302.486 39.6482C307.685 43.1229 311.781 47.5904 314.776 53.0505C317.771 58.4556 319.268 64.9361 319.268 72.4921V158.2H285.026V140.579H284.009C281.918 144.55 279.121 148.052 275.617 151.086C272.115 154.064 267.905 156.408 262.989 158.118C258.073 159.772 252.394 160.6 245.952 160.6ZM256.293 136.277C261.604 136.277 266.294 135.256 270.363 133.216C274.431 131.12 277.624 128.307 279.94 124.778C282.257 121.248 283.415 117.249 283.415 112.782V99.297C282.285 100.013 280.731 100.676 278.753 101.282C276.833 101.834 274.657 102.358 272.227 102.854C269.798 103.295 267.368 103.709 264.938 104.095C262.509 104.426 260.304 104.729 258.327 105.005C254.089 105.612 250.388 106.577 247.224 107.9C244.06 109.224 241.601 111.017 239.85 113.278C238.098 115.484 237.223 118.241 237.223 121.551C237.223 126.35 239.002 130.017 242.562 132.554C246.178 135.036 250.756 136.277 256.293 136.277ZM404.594 31.127V57.6007H326.192V31.127H404.594ZM343.992 0.682373H380.099V119.152C380.099 122.406 380.608 124.943 381.625 126.763C382.642 128.528 384.054 129.769 385.862 130.486C387.727 131.203 389.874 131.561 392.304 131.561C393.999 131.561 395.694 131.423 397.389 131.148C399.085 130.817 400.384 130.569 401.288 130.403L406.967 156.629C405.159 157.18 402.616 157.814 399.339 158.532C396.061 159.304 392.078 159.772 387.388 159.938C378.686 160.269 371.058 159.138 364.504 156.546C358.005 153.954 352.948 149.928 349.331 144.467C345.715 139.007 343.936 132.113 343.992 123.784V0.682373ZM474.113 160.682C460.721 160.682 449.194 158.035 439.531 152.741C429.926 147.391 422.523 139.834 417.324 130.072C412.126 120.255 409.527 108.645 409.527 95.2425C409.527 82.1715 412.126 70.6996 417.324 60.8272C422.523 50.9547 429.84 43.2608 439.277 37.7455C448.77 32.2301 459.901 29.4724 472.671 29.4724C481.26 29.4724 489.256 30.8237 496.658 33.5262C504.117 36.1736 510.615 40.1722 516.152 45.5221C521.746 50.872 526.098 57.6007 529.205 65.7082C532.313 73.7606 533.867 83.1919 533.867 94.002V103.681H423.936V81.8406H499.879C499.879 76.7664 498.748 72.2715 496.489 68.3555C494.228 64.4397 491.092 61.3787 487.08 59.1725C483.125 56.9112 478.52 55.7806 473.264 55.7806C467.784 55.7806 462.925 57.0216 458.686 59.5034C454.505 61.9302 451.228 65.2118 448.854 69.3483C446.481 73.4297 445.267 77.9799 445.21 82.9988V103.764C445.21 110.052 446.397 115.484 448.77 120.062C451.199 124.64 454.618 128.169 459.026 130.651C463.433 133.133 468.66 134.374 474.706 134.374C478.717 134.374 482.39 133.823 485.724 132.72C489.058 131.616 491.911 129.962 494.285 127.756C496.658 125.55 498.466 122.847 499.709 119.648L533.104 121.799C531.409 129.631 527.934 136.47 522.678 142.316C517.48 148.107 510.756 152.63 502.506 155.884C494.313 159.083 484.848 160.682 474.113 160.682ZM545.495 158.2V31.127H579.908V53.5469H581.433C584.145 46.1012 588.665 40.2273 594.994 35.9254C601.323 31.6234 608.894 29.4724 617.709 29.4724C626.637 29.4724 634.237 31.651 640.509 36.0081C646.781 40.3101 650.963 46.1564 653.053 53.5469H654.409C657.065 46.2667 661.868 40.448 668.819 36.0908C675.825 31.6786 684.103 29.4724 693.652 29.4724C705.801 29.4724 715.661 33.2504 723.233 40.8064C730.862 48.3073 734.675 58.952 734.675 72.7403V158.2H698.654V79.6896C698.654 72.63 696.732 67.3352 692.889 63.8054C689.048 60.2756 684.244 58.5107 678.481 58.5107C671.926 58.5107 666.812 60.5514 663.14 64.6327C659.467 68.6589 657.631 73.9812 657.631 80.5997V158.2H622.625V78.945C622.625 72.7127 620.789 67.7489 617.116 64.0536C613.5 60.3583 608.725 58.5107 602.792 58.5107C598.78 58.5107 595.163 59.5034 591.943 61.489C588.779 63.4194 586.264 66.1494 584.399 69.6793C582.535 73.1539 581.602 77.2353 581.602 81.9233V158.2H545.495ZM810.593 160.682C797.201 160.682 785.674 158.035 776.012 152.741C766.406 147.391 759.003 139.834 753.805 130.072C748.606 120.255 746.007 108.645 746.007 95.2425C746.007 82.1715 748.606 70.6996 753.805 60.8272C759.003 50.9547 766.321 43.2608 775.758 37.7455C785.25 32.2301 796.382 29.4724 809.152 29.4724C817.741 29.4724 825.736 30.8237 833.139 33.5262C840.597 36.1736 847.095 40.1722 852.631 45.5221C858.223 50.872 862.579 57.6007 865.682 65.7082C868.793 73.7606 870.344 83.1919 870.344 94.002V103.681H760.416V81.8406H836.359C836.359 76.7664 835.23 72.2715 832.969 68.3555C830.709 64.4397 827.573 61.3787 823.561 59.1725C819.606 56.9112 815.001 55.7806 809.746 55.7806C804.264 55.7806 799.405 57.0216 795.167 59.5034C790.985 61.9302 787.709 65.2118 785.335 69.3483C782.962 73.4297 781.747 77.9799 781.691 82.9988V103.764C781.691 110.052 782.877 115.484 785.25 120.062C787.68 124.64 791.099 128.169 795.506 130.651C799.914 133.133 805.14 134.374 811.186 134.374C815.199 134.374 818.871 133.823 822.205 132.72C825.538 131.616 828.392 129.962 830.765 127.756C833.139 125.55 834.947 122.847 836.19 119.648L869.586 121.799C867.889 129.631 864.411 136.47 859.161 142.316C853.961 148.107 847.237 152.63 838.987 155.884C830.794 159.083 821.329 160.682 810.593 160.682ZM918.08 84.7365V158.2H881.98V31.127H916.384V53.5469H917.909C920.799 46.1564 925.624 40.3101 932.409 36.0081C939.186 31.651 947.412 29.4724 957.07 29.4724C966.114 29.4724 973.999 31.4028 980.716 35.2635C987.442 39.1243 992.667 44.6397 996.401 51.8096C1000.13 58.9243 1001.99 67.4179 1001.99 77.2904V158.2H965.884V83.5775C965.944 75.8013 963.906 69.7344 959.781 65.3773C955.655 60.965 949.978 58.7589 942.749 58.7589C937.89 58.7589 933.594 59.7792 929.86 61.8199C926.195 63.8606 923.314 66.8388 921.217 70.7548C919.188 74.6155 918.14 79.2759 918.08 84.7365ZM1087.76 31.127V57.6007H1009.37V31.127H1087.76ZM1027.16 0.682373H1063.27V119.152C1063.27 122.406 1063.78 124.943 1064.8 126.763C1065.81 128.528 1067.23 129.769 1069.04 130.486C1070.89 131.203 1073.04 131.561 1075.47 131.561C1077.17 131.561 1078.86 131.423 1080.56 131.148C1082.26 130.817 1083.55 130.569 1084.46 130.403L1090.14 156.629C1088.33 157.18 1085.79 157.814 1082.51 158.532C1079.23 159.304 1075.25 159.772 1070.56 159.938C1061.86 160.269 1054.23 159.138 1047.67 156.546C1041.18 153.954 1036.11 149.928 1032.5 144.467C1028.89 139.007 1027.1 132.113 1027.16 123.784V0.682373Z" fill="#121212"/>
<path d="M1120.14 37.6551V30.6824H1152.34V37.6551H1140.34V70.6824H1132.15V37.6551H1120.14ZM1157.64 30.6824H1167.87L1178.67 57.5574H1179.13L1189.92 30.6824H1200.14V70.6824H1192.1V44.6472H1191.78L1181.63 70.487H1176.15L1166.01 44.5496H1165.69V70.6824H1157.64V30.6824Z" fill="#121212"/>
</g>
<defs>
<clipPath id="clip0_10_86">
<rect width="1200" height="161" fill="white"/>
</clipPath>
</defs>
</svg>
